<svg xmlns="http://www.w3.org/2000/svg" color-interpolation-filters="sRGB" version="1.0" viewBox="0 0 250.32 57.67">
  <g fill="#fff">
    <g>
      <path fill="none" d="M0 0h45.6v57.665H0z" class="image-rect"/>
      <svg width="45.6" height="57.665" style="overflow:visible">
        <svg xmlns="http://www.w3.org/2000/svg" viewBox="0 0 79.08 100.004">
          <g fill-rule="evenodd">
            <path fill="#fff" d="M5 29.85 56 9.69C61.37 7.34 68.32 3.79 71.45 0c0 0 20.94 20-6.56 30.85L20.64 48.36z"/>
            <path fill="#fff" d="m0 64.55 51-20.16c5.38-2.34 12.33-5.89 15.46-9.68 0 0 20.94 20-6.56 30.84L15.59 83.07z"/>
            <path fill="#fff" d="m0 64.55 27-10.68 33.17 39.36-13.5 5.35c-7.43 2.94-17 1.18-21.31-3.92z" opacity=".8"/>
          </g>
        </svg>
      </svg>
    </g>
    <path d="M80.04 35.575v.96q0 .92-.32 1.97-.32 1.05-1.03 1.95-.72.9-1.87 1.51-1.15.6-2.81.6h-18.9q-.54 0-1-.19-.45-.19-.79-.53-.33-.33-.53-.79-.19-.46-.19-1v-22.43q0-.52.19-.98.2-.46.53-.81.34-.34.79-.53.46-.19 1-.19h16.66q.91 0 1.97.32 1.05.33 1.96 1.05.91.71 1.51 1.86.61 1.15.61 2.82v.93q0 1.33-.45 2.85-.44 1.52-1.41 2.88.84.52 1.58 1.24.73.73 1.29 1.69t.88 2.16q.33 1.21.33 2.66Zm-4.98.92v-.92q0-.97-.31-1.75-.3-.77-.86-1.33-.55-.55-1.34-.85-.78-.3-1.76-.3H59.57v-5.01h8.98q.98 0 1.76-.3.79-.3 1.34-.85.56-.56.85-1.33.3-.78.3-1.76v-.93q0-1.08-1.03-1.08H57.58v17.5h16.43q.13 0 .32-.02t.35-.11q.15-.1.26-.33.12-.23.12-.63Zm31.87-10.16v5.01H91.22v-5.01h15.71Zm2.24 11.25v4.98H91.22q-1.04 0-2.26-.36-1.23-.37-2.27-1.2t-1.74-2.16q-.7-1.33-.7-3.27v-17.95q0-.52.19-.98.19-.46.53-.81.33-.34.79-.53t1-.19h22.41v4.97H89.23v15.49q0 .98.51 1.5.52.51 1.51.51h17.92Zm36.76-20.35v25.33h-5.02v-16.35l-8.82 15.53q-.33.59-.91.9-.58.3-1.25.3-.66 0-1.22-.3-.56-.31-.89-.9l-8.86-15.53v16.35h-4.98v-25.33q0-.86.51-1.53.5-.67 1.33-.9.4-.09.8-.07.4.03.78.18.37.14.68.4.3.26.51.62l11.34 19.7 11.33-19.7q.44-.73 1.21-1.03.78-.31 1.62-.1.81.23 1.32.9.52.67.52 1.53Zm32.68-2.12v24.94q0 .54-.19 1-.19.46-.54.79-.34.34-.8.53t-.98.19h-11.22q-1.59 0-3.21-.34-1.63-.35-3.15-1.07-1.52-.71-2.86-1.83-1.34-1.11-2.35-2.63-1-1.52-1.58-3.48-.57-1.96-.57-4.38v-13.72h4.97v13.72q0 2.11.59 3.56.58 1.46 1.48 2.44.9.97 1.97 1.53 1.08.55 2.04.82.97.27 1.71.34.73.06.96.06h8.75v-22.47h4.98Zm32.16 19.37q0 1.48-.37 2.65-.38 1.18-.99 2.08-.61.9-1.43 1.53-.83.63-1.71 1.04-.88.4-1.79.59-.91.19-1.71.19h-19.2v-4.98h19.2q1.43 0 2.23-.84.79-.84.79-2.26 0-.69-.21-1.26-.21-.58-.6-1-.39-.42-.96-.65-.56-.23-1.25-.23h-11.45q-1.21 0-2.6-.43-1.4-.43-2.6-1.39-1.19-.95-1.99-2.51-.79-1.55-.79-3.79t.79-3.78q.8-1.54 1.99-2.5 1.2-.97 2.6-1.4 1.39-.43 2.6-.43h16.94v4.97h-16.94q-1.42 0-2.21.87-.79.86-.79 2.27 0 1.44.79 2.27.79.84 2.21.84h11.49q.8.01 1.7.22.9.2 1.79.62t1.7 1.06q.8.64 1.42 1.54.62.9.99 2.07.36 1.17.36 2.64Zm9.15-19.37v27.45h-4.98v-27.45h4.98Zm30.4 22.47v4.98h-17.95q-.69 0-1.49-.16-.79-.17-1.57-.51-.77-.34-1.48-.89t-1.26-1.32q-.54-.78-.87-1.8-.32-1.02-.32-2.31v-13.48q0-.68.16-1.48.16-.79.51-1.57.34-.77.9-1.48.55-.71 1.33-1.26.77-.54 1.79-.87 1.01-.32 2.3-.32h17.95v4.97h-17.95q-.98 0-1.5.52-.51.52-.51 1.53v13.44q0 .96.52 1.49.53.52 1.49.52h17.95Z"/>
  </g>
</svg>
